{"title":"Girls Do Porn E266 - 18 Years Old","uid":10839311,"size":285337180,"categoryP":"porn","categoryS":"movie_clips","magnet":"?xt=urn:btih:3025915d6bf7f5eaf13b1ad216b2333fefe086a5&amp;dn=Girls+Do+Porn+E266+-+18+Years+Old&amp;tr=udp%3A%2F%2Ftracker.openbittorrent.com%3A80&amp;tr=udp%3A%2F%2Fopen.demonii.com%3A1337&amp;tr=udp%3A%2F%2Ftracker.coppersurfer.tk%3A6969&amp;tr=udp%3A%2F%2Fexodus.desync.com%3A6969","seeders":0,"leechers":1,"uploader":"ThousandPeers","files":5,"time":1408728111,"description":"Screens:\n &lt;a href=&quot;\nhttp://postimg.org/image/r144zib0b/&quot; rel=&quot;nofollow&quot; target=&quot;_NEW&quot;&gt;\nhttp://postimg.org/image/r144zib0b/&lt;/a&gt;\n\nFormat                                   : MPEG-4\nFormat profile                           : Base Media / Version 2\nCodec ID                                 : mp42\nFile size                                : 272 MiB\nDuration                                 : 32mn 54s\nOverall bit rate mode                    : Variable\nOverall bit rate                         : 1 156 Kbps\nEncoded date                             : UTC 2014-08-17 09:45:28\nTagged date                              : UTC 2014-08-17 09:51:07\nWriting application                      : HandBrake 0.9.9 2013052900\n\nVideo\nID                                       : 1\nFormat                                   : AVC\nFormat/Info                              : Advanced Video Codec\nFormat profile                           : &lt;a class=&quot;__cf_email__&quot; href=&quot;/cdn-cgi/l/email-protection&quot; data-cfemail=&quot;602d01090e202c544e50&quot;&gt;[email&amp;#160;protected]&lt;/a&gt;&lt;script cf-hash='f9e31' type=&quot;text/javascript&quot;&gt;\n/* &lt;![CDATA[ */!function(){try{var t=&quot;currentScript&quot;in document?document.currentScript:function(){for(var t=document.getElementsByTagName(&quot;script&quot;),e=t.length;e--;)if(t[e].getAttribute(&quot;cf-hash&quot;))return t[e]}();if(t&amp;&amp;t.previousSibling){var e,r,n,i,c=t.previousSibling,a=c.getAttribute(&quot;data-cfemail&quot;);if(a){for(e=&quot;&quot;,r=parseInt(a.substr(0,2),16),n=2;a.length-n;n+=2)i=parseInt(a.substr(n,2),16)^r,e+=String.fromCharCode(i);e=document.createTextNode(e),c.parentNode.replaceChild(e,c)}}}catch(u){}}();/* ]]&gt; */&lt;/script&gt;\nFormat settings, CABAC                   : Yes\nFormat settings, ReFrames                : 4 frames\nCodec ID                                 : avc1\nCodec ID/Info                            : Advanced Video Coding\nDuration                                 : 32mn 54s\nBit rate mode                            : Variable\nBit rate                                 : 1 000 Kbps\nWidth                                    : 854 pixels\nHeight                                   : 480 pixels\nDisplay aspect ratio                     : 16:9\nOriginal display aspect ratio            : 16:9\nFrame rate mode                          : Variable\nFrame rate                               : 29.970 fps\nMinimum frame rate                       : 12.658 fps\nMaximum frame rate                       : 30.303 fps\nColor space                              : YUV\nChroma subsampling                       : 4:2:0\nBit depth                                : 8 bits\nScan type                                : Progressive\nBits/(Pixel*Frame)                       : 0.081\nStream size                              : 233 MiB (86%)\n\nAudio\nID                                       : 2\nFormat                                   : AAC\nFormat/Info                              : Advanced Audio Codec\nFormat profile                           : LC\nCodec ID                                 : 40\nDuration                                 : 32mn 54s\nBit rate mode                            : Variable\nBit rate                                 : 160 Kbps\nMaximum bit rate                         : 211 Kbps\nChannel(s)                               : 2 channels\nChannel positions                        : Front: L R\nSampling rate                            : 44.1 KHz\nCompression mode                         : Lossy\nDelay relative to video                  : 112ms\nStream size                              : 37.6 MiB (14%)","torrent":{"xt":"urn:btih:3025915d6bf7f5eaf13b1ad216b2333fefe086a5","amp;dn":"Girls+Do+Porn+E266+-+18+Years+Old","amp;tr":["udp%3A%2F%2Ftracker.openbittorrent.com%3A80","udp%3A%2F%2Fopen.demonii.com%3A1337","udp%3A%2F%2Ftracker.coppersurfer.tk%3A6969","udp%3A%2F%2Fexodus.desync.com%3A6969"],"infoHash":"3025915d6bf7f5eaf13b1ad216b2333fefe086a5","infoHashBuffer":{"type":"Buffer","data":[48,37,145,93,107,247,245,234,241,59,26,210,22,178,51,63,239,224,134,165]},"announce":[],"urlList":[]}}